<svg width="58" height="62" viewBox="0 0 58 62" fill="none" xmlns="http://www.w3.org/2000/svg">
<g filter="url(#filter0_d_207_769)">
<path d="M43.2972 20.8182L48.6104 23.6924L49.7227 24.3173C52.0924 25.6487 52.0924 29.0812 49.7227 30.4126L34.6311 38.8915C31.1311 40.858 26.8689 40.858 23.3689 38.8915L8.27731 30.4126C5.90756 29.0812 5.90756 25.6487 8.27732 24.3173L9.38962 23.6924L14.4084 20.8182M44.4527 33.6152L49.2823 36.0463C51.773 37.3001 51.853 40.8494 49.4213 42.2156L34.6311 50.5252C31.1311 52.4916 26.8689 52.4916 23.3689 50.5252L8.7945 42.3368C6.32099 40.9471 6.45728 37.3194 9.02799 36.1218L14.4084 33.6152M34.6311 26.5279L49.7227 18.049C52.0924 16.7176 52.0924 13.2851 49.7227 11.9537L34.6311 3.47482C31.1311 1.50839 26.8689 1.50839 23.3689 3.47482L8.27732 11.9537C5.90757 13.2851 5.90756 16.7176 8.27731 18.049L23.3689 26.5279C26.8689 28.4944 31.1311 28.4944 34.6311 26.5279Z" stroke="#4F77FF" stroke-width="3.75" shape-rendering="crispEdges"/>
</g>
<defs>
<filter id="filter0_d_207_769" x="0.625" y="0.125" width="56.75" height="61.75" filterUnits="userSpaceOnUse" color-interpolation-filters="sRGB">
<feFlood flood-opacity="0" result="BackgroundImageFix"/>
<feColorMatrix in="SourceAlpha" type="matrix" values="0 0 0 0 0 0 0 0 0 0 0 0 0 0 0 0 0 0 127 0" result="hardAlpha"/>
<feOffset dy="4"/>
<feGaussianBlur stdDeviation="2"/>
<feComposite in2="hardAlpha" operator="out"/>
<feColorMatrix type="matrix" values="0 0 0 0 0 0 0 0 0 0 0 0 0 0 0 0 0 0 0.25 0"/>
<feBlend mode="normal" in2="BackgroundImageFix" result="effect1_dropShadow_207_769"/>
<feBlend mode="normal" in="SourceGraphic" in2="effect1_dropShadow_207_769" result="shape"/>
</filter>
</defs>
</svg>
