<svg width="54" height="53" viewBox="0 0 54 53" fill="none" xmlns="http://www.w3.org/2000/svg">
<path d="M42.7587 28.0222L41.3839 26.7472L42.7587 28.0222ZM25.081 10.3446L26.356 11.7193L25.081 10.3446ZM51.1521 6.6808L53.0113 6.92396L53.0113 6.92396L51.1521 6.6808ZM46.4224 1.95116L46.6656 3.81032L46.4224 1.95116ZM13.2357 27.6265L14.9193 28.4519L14.9193 28.4519L13.2357 27.6265ZM25.4767 39.8675L24.6514 38.1839L24.6514 38.1839L25.4767 39.8675ZM17.5681 21.393C16.8358 20.6608 15.6487 20.6608 14.9164 21.393C14.1842 22.1253 14.1842 23.3124 14.9164 24.0447L17.5681 21.393ZM29.0586 38.1868C29.7908 38.919 30.978 38.919 31.7102 38.1868C32.4424 37.4546 32.4424 36.2674 31.7102 35.5352L29.0586 38.1868ZM13.1487 42.6062C13.8809 41.874 13.8809 40.6868 13.1487 39.9546C12.4164 39.2223 11.2292 39.2223 10.497 39.9546L13.1487 42.6062ZM3.42593 47.0256C2.6937 47.7579 2.6937 48.9451 3.42593 49.6773C4.15817 50.4095 5.34535 50.4095 6.07758 49.6773L3.42593 47.0256ZM7.84535 37.3029C8.57758 36.5707 8.57758 35.3835 7.84535 34.6513C7.11312 33.919 5.92593 33.919 5.1937 34.6513L7.84535 37.3029ZM1.65817 38.1868C0.925934 38.919 0.925934 40.1062 1.65817 40.8385C2.3904 41.5707 3.57758 41.5707 4.30982 40.8385L1.65817 38.1868ZM18.452 47.9095C19.1842 47.1773 19.1842 45.9901 18.452 45.2579C17.7197 44.5256 16.5325 44.5256 15.8003 45.2579L18.452 47.9095ZM12.2648 48.7934C11.5325 49.5256 11.5325 50.7128 12.2648 51.4451C12.997 52.1773 14.1842 52.1773 14.9164 51.4451L12.2648 48.7934ZM23.4901 48.705L25.3462 48.4399L25.3462 48.4399L23.4901 48.705ZM36.3948 40.043L38.2509 39.7778L38.2509 39.7778L36.3948 40.043ZM4.39816 29.6132L4.66332 27.757L4.66332 27.757L4.39816 29.6132ZM13.0602 16.7085L13.3254 14.8523L13.3254 14.8523L13.0602 16.7085ZM21.3754 37.5749L15.5283 31.7278L12.8766 34.3795L18.7238 40.2266L21.3754 37.5749ZM41.3839 26.7472C36.6498 31.8516 28.9631 36.0701 24.6514 38.1839L26.3021 41.5511C30.6526 39.4182 38.8918 34.9488 44.1334 29.2973L41.3839 26.7472ZM14.9193 28.4519C17.0331 24.1401 21.2517 16.4534 26.356 11.7193L23.806 8.96984C18.1544 14.2115 13.685 22.4506 11.5522 26.8011L14.9193 28.4519ZM49.2929 6.43765C48.5333 12.246 46.515 21.2149 41.3839 26.7472L44.1334 29.2973C50.1222 22.8402 52.2399 12.8215 53.0113 6.92396L49.2929 6.43765ZM26.356 11.7193C31.8883 6.58829 40.8572 4.56998 46.6656 3.81032L46.1793 0.0919897C40.2818 0.863308 30.2631 2.98107 23.806 8.96984L26.356 11.7193ZM53.0113 6.92396C53.5389 2.88927 50.214 -0.435696 46.1793 0.0919897L46.6656 3.81032C48.258 3.60206 49.5012 4.84524 49.2929 6.43765L53.0113 6.92396ZM15.5283 31.7278C14.6203 30.8199 14.3985 29.5142 14.9193 28.4519L11.5522 26.8011C10.2817 29.3927 10.9072 32.41 12.8766 34.3795L15.5283 31.7278ZM18.7238 40.2266C20.6933 42.1961 23.7106 42.8216 26.3021 41.5511L24.6514 38.1839C23.589 38.7047 22.2834 38.4829 21.3754 37.5749L18.7238 40.2266ZM14.9164 24.0447L29.0586 38.1868L31.7102 35.5352L17.5681 21.393L14.9164 24.0447ZM10.497 39.9546L3.42593 47.0256L6.07758 49.6773L13.1487 42.6062L10.497 39.9546ZM5.1937 34.6513L1.65817 38.1868L4.30982 40.8385L7.84535 37.3029L5.1937 34.6513ZM15.8003 45.2579L12.2648 48.7934L14.9164 51.4451L18.452 47.9095L15.8003 45.2579ZM29.9424 13.4381C27.2576 16.1229 27.2576 20.4759 29.9424 23.1608L32.5941 20.5091C31.3737 19.2888 31.3737 17.3101 32.5941 16.0897L29.9424 13.4381ZM29.9424 23.1608C32.6273 25.8456 36.9803 25.8456 39.6652 23.1608L37.0135 20.5091C35.7931 21.7295 33.8145 21.7295 32.5941 20.5091L29.9424 23.1608ZM39.6652 23.1608C42.35 20.4759 42.35 16.1229 39.6652 13.4381L37.0135 16.0897C38.2339 17.3101 38.2339 19.2888 37.0135 20.5091L39.6652 23.1608ZM39.6652 13.4381C36.9803 10.7532 32.6273 10.7532 29.9424 13.4381L32.5941 16.0897C33.8145 14.8693 35.7931 14.8693 37.0135 16.0897L39.6652 13.4381ZM34.3619 40.8385L26.4069 48.7934L29.0586 51.4451L37.0135 43.4901L34.3619 40.8385ZM25.3462 48.4399L24.2856 41.0152L20.5733 41.5456L21.6339 48.9702L25.3462 48.4399ZM33.8315 35.3584L34.5386 40.3081L38.2509 39.7778L37.5438 34.8281L33.8315 35.3584ZM26.4069 48.7934C26.0427 49.1576 25.4191 48.9497 25.3462 48.4399L21.6339 48.9702C22.1438 52.5391 26.5093 53.9943 29.0586 51.4451L26.4069 48.7934ZM37.0135 43.4901C37.9872 42.5164 38.4457 41.141 38.2509 39.7778L34.5386 40.3081C34.5665 40.5029 34.501 40.6994 34.3619 40.8385L37.0135 43.4901ZM9.61306 16.0898L1.65811 24.0447L4.30976 26.6964L12.2647 18.7414L9.61306 16.0898ZM4.13299 31.4693L11.5576 32.53L12.0879 28.8177L4.66332 27.757L4.13299 31.4693ZM18.2751 15.5594L13.3254 14.8523L12.795 18.5646L17.7448 19.2718L18.2751 15.5594ZM1.65811 24.0447C-0.891149 26.594 0.56403 30.9595 4.13299 31.4693L4.66332 27.757C4.15346 27.6842 3.94559 27.0606 4.30976 26.6964L1.65811 24.0447ZM12.2647 18.7414C12.4038 18.6023 12.6003 18.5368 12.795 18.5646L13.3254 14.8523C11.9622 14.6576 10.5868 15.116 9.61306 16.0898L12.2647 18.7414Z" fill="#4F77FF"/>
</svg>
